<svg width="1000" height="500" viewBox="0 0 1000 500" fill="none" xmlns="http://www.w3.org/2000/svg">
<path d="M259.197 224.442C255.036 222.714 251.435 219.87 248.79 216.223C246.24 212.592 244.914 208.242 245.004 203.806H259.434C259.65 207.156 261.154 210.292 263.63 212.558C266.552 214.997 270.298 216.224 274.097 215.986C278.013 216.224 281.88 215.026 284.975 212.615C286.238 211.554 287.246 210.222 287.922 208.717C288.598 207.212 288.925 205.574 288.879 203.925C288.981 201.448 288.11 199.029 286.454 197.185C284.773 195.407 282.711 194.032 280.423 193.162C277.154 191.947 273.817 190.921 270.43 190.089C265.974 188.974 261.606 187.53 257.362 185.771C253.968 184.279 251.016 181.938 248.79 178.974C246.267 175.385 245.018 171.056 245.242 166.675C245.146 162.273 246.383 157.944 248.79 154.258C251.243 150.635 254.692 147.801 258.722 146.097C263.395 144.125 268.432 143.158 273.504 143.261C280.517 142.964 287.422 145.07 293.075 149.231C295.583 151.189 297.638 153.667 299.097 156.495C300.557 159.322 301.387 162.432 301.531 165.611H286.63C286.5 164.103 286.054 162.639 285.321 161.314C284.587 159.99 283.583 158.835 282.374 157.924C279.427 155.682 275.784 154.552 272.086 154.732C268.684 154.584 265.338 155.63 262.625 157.688C261.392 158.722 260.417 160.031 259.781 161.51C259.144 162.988 258.862 164.595 258.959 166.202C258.916 167.338 259.098 168.471 259.494 169.537C259.89 170.603 260.492 171.58 261.265 172.413C262.915 174.104 264.912 175.415 267.12 176.256C270.292 177.461 273.53 178.487 276.818 179.329C281.35 180.519 285.795 182.021 290.121 183.823C293.58 185.345 296.593 187.728 298.872 190.743C301.435 194.381 302.705 198.774 302.477 203.219C302.478 207.398 301.311 211.494 299.106 215.044C296.728 218.874 293.33 221.965 289.293 223.972C284.578 226.316 279.361 227.473 274.097 227.344C268.983 227.422 263.908 226.434 259.197 224.442Z" fill="white"/>
<path d="M328.257 172.349V208.417C328.166 209.365 328.27 210.321 328.565 211.226C328.86 212.131 329.338 212.966 329.97 213.678C331.659 214.911 333.743 215.48 335.824 215.275H344.102V226.51H333.459C328.443 226.85 323.476 225.335 319.504 222.252C317.746 220.432 316.402 218.254 315.565 215.866C314.728 213.477 314.417 210.936 314.654 208.417V172.349H306.968V161.351H314.654V145.151H328.254V161.351H344.098V172.349H328.257Z" fill="white"/>
<path d="M371.95 163.065C375.524 161.138 379.54 160.18 383.599 160.286V174.241H380.169C378.002 174.083 375.825 174.358 373.765 175.048C371.704 175.738 369.801 176.83 368.165 178.261C365.031 182.199 363.566 187.209 364.085 192.215V226.51H350.605V161.35H364.085V170.81C365.976 167.579 368.69 164.906 371.95 163.065Z" fill="white"/>
<path d="M449.108 161.351V226.51H435.625V218.824C433.403 221.578 430.542 223.75 427.291 225.15C423.851 226.688 420.121 227.474 416.352 227.456C411.568 227.535 406.837 226.44 402.574 224.264C398.512 222.133 395.177 218.839 392.995 214.803C390.553 210.141 389.351 204.929 389.505 199.669V161.351H402.869V197.655C402.541 202.526 404.109 207.335 407.245 211.077C408.79 212.659 410.654 213.894 412.713 214.699C414.772 215.505 416.98 215.862 419.188 215.748C421.405 215.858 423.62 215.499 425.689 214.694C427.757 213.889 429.632 212.657 431.192 211.077C434.365 207.353 435.956 202.536 435.625 197.655V161.351H449.108Z" fill="white"/>
<path d="M520.181 198.958H470.394C470.59 203.738 472.674 208.245 476.187 211.492C479.677 214.655 484.253 216.349 488.961 216.222C492.144 216.436 495.317 215.681 498.062 214.054C500.806 212.428 502.994 210.009 504.335 207.114H518.879C516.962 213.032 513.215 218.189 508.177 221.839C502.571 225.799 495.822 227.814 488.962 227.574C483.111 227.671 477.338 226.223 472.226 223.375C467.326 220.605 463.309 216.505 460.639 211.549C457.753 206.112 456.307 200.025 456.44 193.871C456.308 187.729 457.711 181.651 460.52 176.188C463.115 171.232 467.103 167.142 471.992 164.422C477.194 161.594 483.042 160.167 488.962 160.283C494.697 160.181 500.36 161.567 505.4 164.306C510.144 166.923 514.042 170.84 516.634 175.598C519.385 180.739 520.769 186.5 520.654 192.33C520.67 194.548 520.512 196.764 520.181 198.958ZM506.582 188.077C506.63 185.817 506.178 183.574 505.258 181.509C504.338 179.444 502.973 177.608 501.26 176.133C497.667 173.092 493.075 171.491 488.371 171.639C483.97 171.545 479.699 173.132 476.427 176.075C473.03 179.199 470.921 183.479 470.514 188.077H506.582Z" fill="white"/>
<path d="M529.902 176.191C532.465 171.271 536.383 167.187 541.194 164.424C546.814 161.473 553.114 160.056 559.456 160.315C565.799 160.575 571.961 162.502 577.322 165.903C582.605 169.829 586.317 175.511 587.789 181.927H573.241C572.191 178.871 570.205 176.223 567.566 174.359C564.655 172.457 561.225 171.506 557.75 171.639C555.251 171.538 552.762 172.014 550.475 173.029C548.189 174.045 546.167 175.572 544.565 177.494C541.036 182.197 539.296 188.004 539.657 193.873C539.304 199.759 541.043 205.581 544.565 210.311C546.158 212.247 548.177 213.788 550.464 214.814C552.751 215.839 555.245 216.322 557.75 216.224C561.114 216.508 564.476 215.647 567.288 213.779C570.101 211.911 572.199 209.147 573.241 205.936H587.789C586.109 212.241 582.361 217.8 577.146 221.722C571.505 225.762 564.685 227.821 557.751 227.576C551.955 227.688 546.237 226.237 541.195 223.377C536.389 220.582 532.473 216.481 529.903 211.551C527.217 206.044 525.822 199.997 525.822 193.871C525.822 187.744 527.217 181.698 529.902 176.191Z" fill="white"/>
<path d="M621.135 193.988L651.174 226.509H632.962L608.837 198.483V226.51H595.357V139H608.837V189.851L632.488 161.351H651.175L621.135 193.988Z" fill="white"/>
<path d="M714.205 198.958H664.419C664.616 203.738 666.699 208.245 670.212 211.492C673.702 214.655 678.278 216.349 682.987 216.222C686.17 216.436 689.343 215.681 692.087 214.055C694.832 212.429 697.019 210.009 698.36 207.114H712.904C710.987 213.032 707.24 218.188 702.203 221.839C696.597 225.799 689.847 227.814 682.987 227.574C677.136 227.671 671.363 226.223 666.251 223.375C661.351 220.605 657.334 216.505 654.664 211.549C651.778 206.111 650.333 200.025 650.465 193.871C650.334 187.729 651.736 181.651 654.546 176.188C657.141 171.232 661.128 167.142 666.017 164.422C671.219 161.594 677.067 160.167 682.987 160.283C688.722 160.181 694.385 161.567 699.424 164.306C704.169 166.922 708.066 170.84 710.659 175.598C713.411 180.74 714.795 186.502 714.678 192.333C714.694 194.55 714.536 196.765 714.205 198.958ZM700.605 188.077C700.653 185.817 700.201 183.574 699.281 181.509C698.361 179.444 696.996 177.608 695.283 176.133C691.691 173.092 687.098 171.491 682.393 171.639C677.993 171.545 673.723 173.132 670.451 176.075C667.053 179.199 664.945 183.479 664.538 188.077H700.605Z" fill="white"/>
<path d="M743.352 163.065C746.926 161.138 750.942 160.18 755 160.286V174.241H751.571C749.403 174.083 747.226 174.358 745.166 175.048C743.105 175.738 741.202 176.83 739.567 178.261C736.433 182.199 734.968 187.209 735.486 192.215V226.51H722.006V161.35H735.486V170.811C737.378 167.579 740.092 164.906 743.352 163.065Z" fill="white"/>
<path d="M312.646 236.301V318.49H299.166V282.537H260.495V318.489H247.015V236.3H260.495V271.539H299.166V236.3L312.646 236.301Z" fill="white"/>
<path d="M382.424 253.329V318.489H368.942V310.802C366.719 313.557 363.858 315.728 360.607 317.128C357.167 318.667 353.437 319.453 349.668 319.434C344.884 319.514 340.153 318.418 335.89 316.243C331.828 314.112 328.493 310.818 326.311 306.782C323.869 302.12 322.667 296.908 322.822 291.647V253.331H336.185V289.635C335.857 294.507 337.425 299.316 340.561 303.058C342.106 304.64 343.97 305.875 346.029 306.68C348.089 307.485 350.296 307.843 352.504 307.728C354.721 307.838 356.936 307.479 359.005 306.675C361.074 305.87 362.949 304.637 364.508 303.058C367.682 299.334 369.273 294.517 368.942 289.635V253.331L382.424 253.329Z" fill="white"/>
<path d="M439.779 255.456C443.832 257.58 447.149 260.877 449.298 264.917C451.701 269.591 452.88 274.798 452.727 280.052V318.485H439.365V282.062C439.694 277.191 438.126 272.382 434.99 268.641C433.444 267.059 431.58 265.824 429.52 265.018C427.46 264.213 425.253 263.855 423.044 263.97C420.827 263.859 418.612 264.218 416.544 265.023C414.476 265.828 412.601 267.061 411.043 268.641C407.869 272.364 406.277 277.181 406.606 282.062V318.485H393.126V253.326H406.606V260.775C408.885 258.042 411.785 255.894 415.062 254.51C418.513 253.007 422.239 252.241 426.002 252.261C430.787 252.183 435.517 253.28 439.779 255.456Z" fill="white"/>
<path d="M537.416 268.466C539.955 263.604 543.791 259.539 548.497 256.721C553.204 253.904 558.598 252.443 564.083 252.502C568.736 252.395 573.345 253.43 577.505 255.517C581.074 257.319 584.202 259.883 586.67 263.027V253.567H600.27V318.726H586.67V309.029C584.184 312.271 580.987 314.901 577.326 316.715C572.795 318.933 567.782 319.981 562.742 319.764C557.702 319.547 552.797 318.072 548.474 315.474C543.761 312.532 539.938 308.362 537.416 303.411C534.632 297.983 533.231 291.951 533.336 285.851C533.216 279.806 534.62 273.828 537.416 268.466ZM583.889 274.379C582.202 271.24 579.687 268.622 576.617 266.811C573.676 265.092 570.326 264.194 566.919 264.21C563.45 264.178 560.038 265.092 557.048 266.852C554.058 268.612 551.605 271.153 549.949 274.202C548.023 277.776 547.065 281.792 547.171 285.851C547.08 289.964 548.036 294.034 549.949 297.677C551.632 300.887 554.17 303.568 557.283 305.424C560.196 307.164 563.526 308.083 566.919 308.083C570.327 308.1 573.676 307.202 576.617 305.481C579.699 303.66 582.216 301.02 583.889 297.856C585.807 294.236 586.764 290.185 586.67 286.089C586.77 282.011 585.812 277.977 583.889 274.379Z" fill="white"/>
<path d="M633.442 255.28C637.015 253.353 641.031 252.395 645.089 252.501V266.455H641.66C639.493 266.298 637.316 266.573 635.255 267.263C633.195 267.953 631.292 269.045 629.656 270.476C626.522 274.414 625.057 279.424 625.576 284.43V318.724H612.096V253.565H625.576V263.025C627.467 259.794 630.181 257.121 633.442 255.28Z" fill="white"/>
<path d="M663.181 315.59C658.247 312.824 654.191 308.726 651.475 303.765C648.553 298.339 647.086 292.248 647.219 286.086C647.1 279.93 648.61 273.851 651.594 268.465C654.378 263.474 658.519 259.374 663.537 256.639C668.759 253.921 674.56 252.501 680.448 252.501C686.335 252.501 692.136 253.921 697.358 256.639C702.377 259.374 706.518 263.474 709.302 268.465C712.285 273.852 713.794 279.93 713.677 286.086C713.793 292.256 712.242 298.343 709.186 303.704C706.291 308.728 702.052 312.845 696.945 315.59C691.694 318.411 685.815 319.855 679.856 319.789C674.026 319.87 668.277 318.423 663.181 315.59ZM689.615 305.598C692.73 303.86 695.292 301.278 697.006 298.149C698.991 294.446 699.969 290.286 699.841 286.087C699.972 281.919 699.036 277.787 697.121 274.083C695.474 270.98 692.971 268.415 689.91 266.692C686.944 265.045 683.604 264.19 680.212 264.209C676.837 264.184 673.515 265.04 670.572 266.692C667.553 268.412 665.106 270.983 663.537 274.083C661.699 277.81 660.806 281.933 660.935 286.087C660.554 291.998 662.483 297.827 666.315 302.344C668.032 304.211 670.129 305.689 672.464 306.679C674.8 307.668 677.32 308.146 679.856 308.08C683.267 308.095 686.625 307.24 689.615 305.598Z" fill="white"/>
<path d="M528.247 265.817V251.889C521.167 251.557 514.101 252.79 507.552 255.502C502.554 253.335 497.136 252.31 491.691 252.503C486.247 252.696 480.915 254.103 476.083 256.619C471.051 259.341 466.903 263.444 464.126 268.445C461.114 273.816 459.594 279.895 459.724 286.052C459.599 292.213 461.07 298.301 463.994 303.725C466.728 308.669 470.775 312.762 475.689 315.551C476.765 316.176 477.885 316.725 479.039 317.193L480.353 317.719L478.448 317.784C476.816 317.833 475.191 318.009 473.586 318.31C470.535 318.813 467.7 320.207 465.44 322.318C464.351 323.445 463.508 324.786 462.965 326.257C462.422 327.727 462.191 329.294 462.286 330.858C462.206 332.762 462.575 334.657 463.362 336.392C464.15 338.126 465.334 339.652 466.819 340.845C471.107 343.609 476.189 344.88 481.273 344.458H497.763C500.571 344.37 503.367 344.862 505.976 345.903C508.071 346.801 509.805 348.373 510.903 350.371C512.127 352.882 512.692 355.662 512.546 358.452V361.802H526.079V355.167C526.312 350.279 525.15 345.426 522.729 341.173C520.538 337.695 517.257 335.038 513.4 333.618C508.842 332.028 504.035 331.271 499.209 331.384H482.193C480.503 331.483 478.824 331.046 477.397 330.136C476.856 329.678 476.427 329.102 476.143 328.453C475.858 327.804 475.725 327.099 475.754 326.391C475.684 325.25 476.022 324.12 476.708 323.205C477.394 322.291 478.384 321.65 479.499 321.398C483.484 320.324 487.592 319.772 491.719 319.755H492.376C498.336 319.839 504.218 318.391 509.458 315.551C514.573 312.798 518.826 308.682 521.743 303.659C524.664 298.252 526.199 292.206 526.211 286.06C526.222 279.915 524.71 273.863 521.809 268.445C521.396 267.678 520.913 266.952 520.364 266.277C521.83 265.951 523.329 265.797 524.831 265.817H528.247ZM509.523 298.141C507.811 301.253 505.263 303.825 502.165 305.565C499.162 307.202 495.796 308.06 492.376 308.061C489.837 308.128 487.313 307.647 484.977 306.649C482.642 305.651 480.549 304.161 478.842 302.28C474.992 297.784 473.058 291.958 473.455 286.052C473.316 281.888 474.219 277.756 476.083 274.029C477.636 270.928 480.085 268.364 483.113 266.671C486.062 265.019 489.389 264.159 492.77 264.175C496.149 264.176 499.472 265.035 502.428 266.671C505.498 268.373 508.009 270.929 509.655 274.029C511.541 277.75 512.467 281.883 512.348 286.052C512.482 290.26 511.508 294.428 509.523 298.141Z" fill="white"/>
</svg>
