<svg width="1000" height="500" viewBox="0 0 1000 500" fill="none" xmlns="http://www.w3.org/2000/svg">
<path d="M259.197 224.443C255.036 222.715 251.435 219.871 248.79 216.224C246.24 212.593 244.914 208.243 245.004 203.807H259.434C259.65 207.157 261.154 210.293 263.63 212.559C266.552 214.998 270.298 216.225 274.097 215.987C278.013 216.225 281.88 215.027 284.975 212.616C286.238 211.555 287.246 210.223 287.922 208.718C288.598 207.213 288.925 205.575 288.879 203.926C288.981 201.449 288.11 199.03 286.454 197.186C284.773 195.408 282.711 194.033 280.423 193.163C277.154 191.948 273.817 190.922 270.43 190.09C265.974 188.975 261.606 187.531 257.362 185.772C253.968 184.28 251.016 181.939 248.79 178.975C246.267 175.386 245.018 171.056 245.242 166.676C245.146 162.274 246.383 157.945 248.79 154.259C251.243 150.636 254.692 147.802 258.722 146.098C263.395 144.126 268.432 143.159 273.504 143.262C280.517 142.965 287.422 145.071 293.075 149.232C295.583 151.19 297.638 153.668 299.097 156.496C300.557 159.323 301.387 162.433 301.531 165.612H286.63C286.5 164.104 286.054 162.639 285.321 161.315C284.587 159.991 283.583 158.836 282.374 157.925C279.427 155.683 275.784 154.553 272.086 154.733C268.684 154.585 265.338 155.631 262.625 157.689C261.392 158.723 260.417 160.032 259.781 161.511C259.144 162.989 258.862 164.596 258.959 166.203C258.916 167.339 259.098 168.472 259.494 169.538C259.89 170.604 260.492 171.581 261.265 172.414C262.915 174.105 264.912 175.416 267.12 176.257C270.292 177.462 273.53 178.488 276.818 179.33C281.35 180.52 285.795 182.022 290.121 183.824C293.58 185.346 296.593 187.729 298.872 190.744C301.435 194.382 302.705 198.775 302.477 203.22C302.478 207.399 301.311 211.495 299.106 215.045C296.728 218.875 293.33 221.966 289.293 223.973C284.578 226.317 279.361 227.474 274.097 227.345C268.983 227.423 263.908 226.435 259.197 224.443Z" fill="#0D1453"/>
<path d="M328.257 172.348V208.416C328.166 209.364 328.27 210.32 328.565 211.225C328.86 212.13 329.338 212.965 329.97 213.677C331.659 214.91 333.743 215.479 335.824 215.274H344.102V226.509H333.459C328.443 226.849 323.476 225.334 319.504 222.251C317.746 220.431 316.402 218.253 315.565 215.865C314.728 213.476 314.417 210.935 314.654 208.416V172.348H306.968V161.35H314.654V145.15H328.254V161.35H344.098V172.348H328.257Z" fill="#0D1453"/>
<path d="M371.95 163.064C375.524 161.137 379.54 160.179 383.599 160.285V174.24H380.169C378.002 174.082 375.825 174.357 373.765 175.047C371.704 175.737 369.801 176.829 368.165 178.26C365.031 182.198 363.566 187.208 364.085 192.214V226.509H350.605V161.349H364.085V170.81C365.976 167.578 368.69 164.905 371.95 163.064Z" fill="#0D1453"/>
<path d="M449.108 161.352V226.511H435.625V218.825C433.403 221.579 430.542 223.751 427.291 225.151C423.851 226.689 420.121 227.475 416.352 227.457C411.568 227.536 406.837 226.441 402.574 224.265C398.512 222.134 395.177 218.84 392.995 214.804C390.553 210.142 389.351 204.93 389.505 199.67V161.352H402.869V197.656C402.541 202.527 404.109 207.336 407.245 211.078C408.79 212.66 410.654 213.895 412.713 214.7C414.772 215.506 416.98 215.863 419.188 215.749C421.405 215.859 423.62 215.5 425.689 214.695C427.757 213.89 429.632 212.658 431.192 211.078C434.365 207.354 435.956 202.537 435.625 197.656V161.352H449.108Z" fill="#0D1453"/>
<path d="M520.181 198.957H470.394C470.59 203.737 472.674 208.244 476.187 211.491C479.677 214.654 484.253 216.348 488.961 216.221C492.144 216.435 495.317 215.68 498.062 214.054C500.806 212.428 502.994 210.008 504.335 207.113H518.879C516.962 213.031 513.215 218.188 508.177 221.838C502.571 225.798 495.822 227.813 488.962 227.573C483.111 227.67 477.338 226.222 472.226 223.374C467.326 220.604 463.309 216.504 460.639 211.548C457.753 206.111 456.307 200.024 456.44 193.87C456.308 187.728 457.711 181.65 460.52 176.187C463.115 171.231 467.103 167.141 471.992 164.421C477.194 161.593 483.042 160.166 488.962 160.282C494.697 160.18 500.36 161.566 505.4 164.305C510.144 166.922 514.042 170.839 516.634 175.597C519.385 180.738 520.769 186.499 520.654 192.329C520.67 194.547 520.512 196.763 520.181 198.957ZM506.582 188.076C506.63 185.816 506.178 183.573 505.258 181.508C504.338 179.443 502.973 177.608 501.26 176.132C497.667 173.091 493.075 171.49 488.371 171.638C483.97 171.544 479.699 173.131 476.427 176.074C473.03 179.198 470.921 183.478 470.514 188.076H506.582Z" fill="#0D1453"/>
<path d="M529.902 176.191C532.465 171.271 536.383 167.187 541.194 164.424C546.814 161.473 553.114 160.056 559.456 160.315C565.799 160.575 571.961 162.502 577.322 165.903C582.605 169.829 586.317 175.511 587.789 181.927H573.241C572.191 178.871 570.205 176.223 567.566 174.359C564.655 172.457 561.225 171.506 557.75 171.639C555.251 171.538 552.762 172.014 550.475 173.029C548.189 174.045 546.167 175.572 544.565 177.494C541.036 182.197 539.296 188.004 539.657 193.873C539.304 199.759 541.043 205.581 544.565 210.311C546.158 212.247 548.177 213.788 550.464 214.814C552.751 215.839 555.245 216.322 557.75 216.224C561.114 216.508 564.476 215.647 567.288 213.779C570.101 211.911 572.199 209.147 573.241 205.936H587.789C586.109 212.241 582.361 217.8 577.146 221.722C571.505 225.762 564.685 227.821 557.751 227.576C551.955 227.688 546.237 226.237 541.195 223.377C536.389 220.582 532.473 216.481 529.903 211.551C527.217 206.044 525.822 199.997 525.822 193.871C525.822 187.744 527.217 181.698 529.902 176.191Z" fill="#0D1453"/>
<path d="M621.135 193.988L651.174 226.509H632.962L608.837 198.483V226.51H595.357V139H608.837V189.851L632.488 161.351H651.175L621.135 193.988Z" fill="#0D1453"/>
<path d="M714.205 198.957H664.419C664.616 203.737 666.699 208.244 670.212 211.491C673.702 214.654 678.278 216.348 682.987 216.221C686.17 216.435 689.343 215.68 692.087 214.054C694.832 212.428 697.019 210.008 698.36 207.113H712.904C710.987 213.031 707.24 218.187 702.203 221.838C696.597 225.798 689.847 227.813 682.987 227.573C677.136 227.67 671.363 226.222 666.251 223.374C661.351 220.604 657.334 216.504 654.664 211.548C651.778 206.11 650.333 200.024 650.465 193.87C650.334 187.728 651.736 181.65 654.546 176.187C657.141 171.231 661.128 167.141 666.017 164.421C671.219 161.593 677.067 160.166 682.987 160.282C688.722 160.18 694.385 161.566 699.424 164.305C704.169 166.921 708.066 170.839 710.659 175.597C713.411 180.739 714.795 186.501 714.678 192.332C714.694 194.549 714.536 196.764 714.205 198.957ZM700.605 188.076C700.653 185.816 700.201 183.573 699.281 181.508C698.361 179.443 696.996 177.608 695.283 176.132C691.691 173.091 687.098 171.49 682.393 171.638C677.993 171.544 673.723 173.131 670.451 176.074C667.053 179.198 664.945 183.478 664.538 188.076H700.605Z" fill="#0D1453"/>
<path d="M743.352 163.064C746.926 161.137 750.942 160.179 755 160.285V174.24H751.571C749.403 174.082 747.226 174.357 745.166 175.047C743.105 175.737 741.202 176.829 739.567 178.26C736.433 182.198 734.968 187.208 735.486 192.214V226.509H722.006V161.349H735.486V170.81C737.378 167.578 740.092 164.905 743.352 163.064Z" fill="#0D1453"/>
<path d="M312.646 236.3V318.489H299.166V282.536H260.495V318.488H247.015V236.299H260.495V271.538H299.166V236.299L312.646 236.3Z" fill="#0D1453"/>
<path d="M382.424 253.328V318.488H368.942V310.801C366.719 313.556 363.858 315.727 360.607 317.127C357.167 318.666 353.437 319.452 349.668 319.433C344.884 319.513 340.153 318.417 335.89 316.242C331.828 314.111 328.493 310.817 326.311 306.781C323.869 302.119 322.667 296.907 322.822 291.646V253.33H336.185V289.634C335.857 294.506 337.425 299.315 340.561 303.057C342.106 304.639 343.97 305.874 346.029 306.679C348.089 307.484 350.296 307.842 352.504 307.727C354.721 307.837 356.936 307.478 359.005 306.674C361.074 305.869 362.949 304.636 364.508 303.057C367.682 299.333 369.273 294.516 368.942 289.634V253.33L382.424 253.328Z" fill="#0D1453"/>
<path d="M439.779 255.457C443.832 257.581 447.149 260.878 449.298 264.918C451.701 269.592 452.88 274.799 452.727 280.053V318.486H439.365V282.063C439.694 277.192 438.126 272.383 434.99 268.642C433.444 267.06 431.58 265.825 429.52 265.019C427.46 264.214 425.253 263.856 423.044 263.97C420.827 263.86 418.612 264.219 416.544 265.024C414.476 265.829 412.601 267.062 411.043 268.642C407.869 272.365 406.277 277.182 406.606 282.063V318.486H393.126V253.327H406.606V260.776C408.885 258.043 411.785 255.895 415.062 254.511C418.513 253.008 422.239 252.242 426.002 252.262C430.787 252.184 435.517 253.281 439.779 255.457Z" fill="#0D1453"/>
<path d="M537.416 268.466C539.955 263.604 543.791 259.539 548.497 256.721C553.204 253.904 558.598 252.443 564.083 252.502C568.736 252.395 573.345 253.43 577.505 255.517C581.074 257.319 584.202 259.883 586.67 263.027V253.567H600.27V318.726H586.67V309.029C584.184 312.271 580.987 314.901 577.326 316.715C572.795 318.933 567.782 319.981 562.742 319.764C557.702 319.547 552.797 318.072 548.474 315.474C543.761 312.532 539.938 308.362 537.416 303.411C534.632 297.983 533.231 291.951 533.336 285.851C533.216 279.806 534.62 273.828 537.416 268.466ZM583.889 274.379C582.202 271.24 579.687 268.622 576.617 266.811C573.676 265.092 570.326 264.194 566.919 264.21C563.45 264.178 560.038 265.092 557.048 266.852C554.058 268.612 551.605 271.153 549.949 274.202C548.023 277.776 547.065 281.792 547.171 285.851C547.08 289.964 548.036 294.034 549.949 297.677C551.632 300.887 554.17 303.568 557.283 305.424C560.196 307.164 563.526 308.083 566.919 308.083C570.327 308.1 573.676 307.202 576.617 305.481C579.699 303.66 582.216 301.02 583.889 297.856C585.807 294.236 586.764 290.185 586.67 286.089C586.77 282.011 585.812 277.977 583.889 274.379Z" fill="#0D1453"/>
<path d="M633.442 255.279C637.015 253.352 641.031 252.394 645.089 252.5V266.454H641.66C639.493 266.297 637.316 266.572 635.255 267.262C633.195 267.952 631.292 269.044 629.656 270.475C626.522 274.413 625.057 279.423 625.576 284.429V318.724H612.096V253.564H625.576V263.024C627.467 259.793 630.181 257.12 633.442 255.279Z" fill="#0D1453"/>
<path d="M663.181 315.591C658.247 312.825 654.191 308.727 651.475 303.766C648.553 298.34 647.086 292.249 647.219 286.087C647.1 279.93 648.61 273.852 651.594 268.466C654.378 263.475 658.519 259.375 663.537 256.64C668.759 253.922 674.56 252.502 680.448 252.502C686.335 252.502 692.136 253.922 697.358 256.64C702.377 259.375 706.518 263.475 709.302 268.466C712.285 273.853 713.794 279.931 713.677 286.087C713.793 292.257 712.242 298.344 709.186 303.705C706.291 308.729 702.052 312.846 696.945 315.591C691.694 318.412 685.815 319.856 679.856 319.79C674.026 319.871 668.277 318.424 663.181 315.591ZM689.615 305.599C692.73 303.861 695.292 301.279 697.006 298.15C698.991 294.447 699.969 290.287 699.841 286.088C699.972 281.92 699.036 277.788 697.121 274.084C695.474 270.981 692.971 268.416 689.91 266.693C686.944 265.046 683.604 264.191 680.212 264.21C676.837 264.185 673.515 265.041 670.572 266.693C667.553 268.413 665.106 270.984 663.537 274.084C661.699 277.811 660.806 281.934 660.935 286.088C660.554 291.999 662.483 297.828 666.315 302.345C668.032 304.212 670.129 305.69 672.464 306.68C674.8 307.669 677.32 308.147 679.856 308.081C683.267 308.096 686.625 307.241 689.615 305.599Z" fill="#0D1453"/>
<path d="M528.247 265.817V251.889C521.167 251.557 514.101 252.79 507.552 255.502C502.554 253.335 497.136 252.31 491.691 252.503C486.247 252.696 480.915 254.103 476.083 256.619C471.051 259.341 466.903 263.444 464.126 268.445C461.114 273.816 459.594 279.895 459.724 286.052C459.599 292.213 461.07 298.301 463.994 303.725C466.728 308.669 470.775 312.762 475.689 315.551C476.765 316.176 477.885 316.725 479.039 317.193L480.353 317.719L478.448 317.784C476.816 317.833 475.191 318.009 473.586 318.31C470.535 318.813 467.7 320.207 465.44 322.318C464.351 323.445 463.508 324.786 462.965 326.257C462.422 327.727 462.191 329.294 462.286 330.858C462.206 332.762 462.575 334.657 463.362 336.392C464.15 338.126 465.334 339.652 466.819 340.845C471.107 343.609 476.189 344.88 481.273 344.458H497.763C500.571 344.37 503.367 344.862 505.976 345.903C508.071 346.801 509.805 348.373 510.903 350.371C512.127 352.882 512.692 355.662 512.546 358.452V361.802H526.079V355.167C526.312 350.279 525.15 345.426 522.729 341.173C520.538 337.695 517.257 335.038 513.4 333.618C508.842 332.028 504.035 331.271 499.209 331.384H482.193C480.503 331.483 478.824 331.046 477.397 330.136C476.856 329.678 476.427 329.102 476.143 328.453C475.858 327.804 475.725 327.099 475.754 326.391C475.684 325.25 476.022 324.12 476.708 323.205C477.394 322.291 478.384 321.65 479.499 321.398C483.484 320.324 487.592 319.772 491.719 319.755H492.376C498.336 319.839 504.218 318.391 509.458 315.551C514.573 312.798 518.826 308.682 521.743 303.659C524.664 298.252 526.199 292.206 526.211 286.06C526.222 279.915 524.71 273.863 521.809 268.445C521.396 267.678 520.913 266.952 520.364 266.277C521.83 265.951 523.329 265.797 524.831 265.817H528.247ZM509.523 298.141C507.811 301.253 505.263 303.825 502.165 305.565C499.162 307.202 495.796 308.06 492.376 308.061C489.837 308.128 487.313 307.647 484.977 306.649C482.642 305.651 480.549 304.161 478.842 302.28C474.992 297.784 473.058 291.958 473.455 286.052C473.316 281.888 474.219 277.756 476.083 274.029C477.636 270.928 480.085 268.364 483.113 266.671C486.062 265.019 489.389 264.159 492.77 264.175C496.149 264.176 499.472 265.035 502.428 266.671C505.498 268.373 508.009 270.929 509.655 274.029C511.541 277.75 512.467 281.883 512.348 286.052C512.482 290.26 511.508 294.428 509.523 298.141Z" fill="#0D1453"/>
</svg>
